<svg xmlns="http://www.w3.org/2000/svg" viewBox="0 0 800 500" role="img" aria-labelledby="t-area">
  <title id="t-area">Placeholder illustration: Limerick service areas</title>
  <defs>
    <linearGradient id="bg-area" x1="0" y1="0" x2="0" y2="1">
      <stop offset="0" stop-color="#F5F5F2"/>
      <stop offset="1" stop-color="#DCE8F4"/>
    </linearGradient>
  </defs>
  <rect width="800" height="500" fill="url(#bg-area)"/>
  <g fill="#C8D4E0" opacity="0.8">
    <path d="M40 380 Q160 320 280 360 T 520 350 T 760 380 V460 H40 Z"/>
  </g>
  <g stroke="#0B6FB8" stroke-width="3" fill="none" stroke-dasharray="4 8" opacity="0.6">
    <path d="M80 420 Q240 380 400 410 T 720 410"/>
  </g>
  <g transform="translate(120 240)">
    <path d="M60 0 L120 50 V160 H0 V50 Z" fill="#FFFFFF" stroke="#0A0A0A" stroke-width="3"/>
    <rect x="48" y="80" width="24" height="40" fill="#0B6FB8"/>
    <rect x="20" y="80" width="20" height="20" fill="#7AB8E8"/>
    <rect x="80" y="80" width="20" height="20" fill="#7AB8E8"/>
  </g>
  <g transform="translate(340 200)">
    <path d="M70 0 L140 60 V190 H0 V60 Z" fill="#FFFFFF" stroke="#0A0A0A" stroke-width="3"/>
    <rect x="56" y="100" width="28" height="50" fill="#0B6FB8"/>
    <rect x="20" y="90" width="24" height="24" fill="#7AB8E8"/>
    <rect x="96" y="90" width="24" height="24" fill="#7AB8E8"/>
    <polygon points="70,0 140,60 0,60" fill="#0A0A0A" opacity="0.1"/>
  </g>
  <g transform="translate(560 250)">
    <path d="M60 0 L120 50 V160 H0 V50 Z" fill="#FFFFFF" stroke="#0A0A0A" stroke-width="3"/>
    <rect x="48" y="80" width="24" height="40" fill="#0B6FB8"/>
    <rect x="20" y="80" width="20" height="20" fill="#7AB8E8"/>
    <rect x="80" y="80" width="20" height="20" fill="#7AB8E8"/>
  </g>
  <g transform="translate(380 110)">
    <circle r="14" fill="#0B6FB8"/>
    <circle r="6" fill="#fff"/>
    <path d="M-12 6 L0 26 L12 6 Z" fill="#0B6FB8"/>
  </g>
  <text x="400" y="450" text-anchor="middle" font-family="Inter, sans-serif" font-size="13" fill="#5C5C5C" letter-spacing="3">PLACEHOLDER · SERVICE AREAS — LIMERICK &amp; MID-WEST</text>
</svg>
