<svg xmlns="http://www.w3.org/2000/svg" viewBox="0 0 800 500" role="img" aria-labelledby="t-bath">
  <title id="t-bath">Placeholder illustration: bathroom plumbing</title>
  <defs>
    <linearGradient id="bg-bath" x1="0" y1="0" x2="0" y2="1">
      <stop offset="0" stop-color="#F5F5F2"/>
      <stop offset="1" stop-color="#E4ECF4"/>
    </linearGradient>
  </defs>
  <rect width="800" height="500" fill="url(#bg-bath)"/>
  <g fill="#D9E2EC" opacity="0.9">
    <rect x="60" y="60" width="80" height="80"/>
    <rect x="150" y="60" width="80" height="80"/>
    <rect x="240" y="60" width="80" height="80"/>
    <rect x="60" y="150" width="80" height="80"/>
    <rect x="150" y="150" width="80" height="80"/>
    <rect x="240" y="150" width="80" height="80"/>
  </g>
  <g stroke="#FFFFFF" stroke-width="2" fill="none">
    <path d="M60 60 H320 M60 150 H320 M60 240 H320 M60 60 V240 M150 60 V240 M240 60 V240"/>
  </g>
  <g transform="translate(380 130)">
    <path d="M0 60 Q0 0 60 0 H300 Q360 0 360 60 V160 Q360 200 320 200 H40 Q0 200 0 160 Z" fill="#FFFFFF" stroke="#0A0A0A" stroke-width="3"/>
    <ellipse cx="180" cy="60" rx="150" ry="14" fill="#7AB8E8" opacity="0.6"/>
    <rect x="170" y="220" width="20" height="40" fill="#0A0A0A"/>
    <rect x="120" y="260" width="120" height="14" rx="4" fill="#0A0A0A"/>
  </g>
  <g transform="translate(420 60)">
    <rect x="0" y="0" width="14" height="50" fill="#0A0A0A"/>
    <rect x="-20" y="50" width="54" height="14" rx="3" fill="#0A0A0A"/>
    <path d="M0 64 Q0 110 -10 130" stroke="#7AB8E8" stroke-width="6" fill="none" stroke-linecap="round"/>
  </g>
  <g fill="#0B6FB8" opacity="0.8">
    <circle cx="120" cy="320" r="6"/>
    <circle cx="160" cy="350" r="4"/>
    <circle cx="200" cy="335" r="5"/>
    <circle cx="240" cy="370" r="3"/>
    <circle cx="280" cy="345" r="6"/>
  </g>
  <text x="400" y="450" text-anchor="middle" font-family="Inter, sans-serif" font-size="13" fill="#5C5C5C" letter-spacing="3">PLACEHOLDER · BATHROOM PLUMBING</text>
</svg>
