<svg xmlns="http://www.w3.org/2000/svg" viewBox="0 0 800 500" role="img" aria-labelledby="t-bsr">
  <title id="t-bsr">Placeholder illustration: boiler servicing and repairs</title>
  <defs>
    <linearGradient id="bg-bsr" x1="0" y1="0" x2="0" y2="1">
      <stop offset="0" stop-color="#F5F5F2"/>
      <stop offset="1" stop-color="#E4ECF4"/>
    </linearGradient>
  </defs>
  <rect width="800" height="500" fill="url(#bg-bsr)"/>
  <g stroke="#C8D4E0" stroke-width="6" fill="none" stroke-linecap="round">
    <path d="M40 100 H260"/>
    <path d="M760 100 H540"/>
    <path d="M40 440 H760"/>
  </g>
  <g transform="translate(220 100)">
    <rect width="220" height="260" rx="10" fill="#FFFFFF" stroke="#0A0A0A" stroke-width="3"/>
    <rect x="18" y="22" width="184" height="36" rx="4" fill="#0A0A0A"/>
    <text x="110" y="48" text-anchor="middle" font-family="Archivo, Arial, sans-serif" font-weight="800" font-size="14" letter-spacing="3" fill="#fff">BOILER</text>
    <circle cx="74" cy="110" r="18" fill="#0B6FB8"/>
    <circle cx="146" cy="110" r="18" fill="none" stroke="#0A0A0A" stroke-width="3"/>
    <rect x="34" y="150" width="152" height="60" rx="4" fill="#F5F5F2" stroke="#0A0A0A" stroke-width="2"/>
    <path d="M110 168 c-6 8-12 18-12 26 a12 12 0 0 0 24 0 c0-8-6-18-12-26z" fill="#0B6FB8"/>
  </g>
  <g transform="translate(470 240) rotate(35)">
    <rect x="0" y="0" width="180" height="22" rx="6" fill="#0A0A0A"/>
    <rect x="-10" y="-12" width="44" height="46" rx="6" fill="#0A0A0A"/>
    <rect x="146" y="-12" width="44" height="46" rx="6" fill="#0B6FB8"/>
    <circle cx="12" cy="11" r="6" fill="#F5F5F2"/>
    <circle cx="168" cy="11" r="6" fill="#F5F5F2"/>
  </g>
  <g transform="translate(120 320)">
    <circle cx="0" cy="0" r="34" fill="none" stroke="#0B6FB8" stroke-width="6"/>
    <path d="M-10 -2 L-2 8 L14 -10" stroke="#0B6FB8" stroke-width="6" fill="none" stroke-linecap="round" stroke-linejoin="round"/>
  </g>
  <text x="400" y="450" text-anchor="middle" font-family="Inter, sans-serif" font-size="13" fill="#5C5C5C" letter-spacing="3">PLACEHOLDER · BOILER SERVICING &amp; REPAIRS</text>
</svg>
