<svg xmlns="http://www.w3.org/2000/svg" viewBox="0 0 800 500" role="img" aria-labelledby="t-emerg">
  <title id="t-emerg">Placeholder illustration: emergency plumber</title>
  <defs>
    <linearGradient id="bg-emerg" x1="0" y1="0" x2="0" y2="1">
      <stop offset="0" stop-color="#1A1212"/>
      <stop offset="1" stop-color="#0A0A0A"/>
    </linearGradient>
  </defs>
  <rect width="800" height="500" fill="url(#bg-emerg)"/>
  <g fill="#3a1f1f" opacity="0.6">
    <circle cx="650" cy="120" r="180"/>
    <circle cx="180" cy="380" r="160"/>
  </g>
  <g transform="translate(180 120)">
    <rect width="440" height="50" rx="6" fill="#7C7C78"/>
    <rect width="440" height="50" rx="6" fill="url(#pipeShine)" opacity="0.4"/>
    <rect x="-10" y="-10" width="30" height="70" fill="#5C5C58"/>
    <rect x="420" y="-10" width="30" height="70" fill="#5C5C58"/>
  </g>
  <g transform="translate(360 170)">
    <path d="M0 0 Q-20 30 -10 60 Q-30 50 -40 80 Q-20 80 0 70 Q15 95 35 80 Q45 105 60 90 Q60 60 40 50 Q60 30 40 10 Q20 30 0 0 Z" fill="#0B6FB8"/>
    <path d="M10 20 Q-2 38 5 55 Q-8 50 -12 65 Q0 64 10 58 Q18 75 30 65 Q35 80 45 70 Q44 52 32 46 Q44 32 30 20 Q20 32 10 20 Z" fill="#7AB8E8"/>
  </g>
  <g fill="#7AB8E8">
    <circle cx="280" cy="300" r="8"/>
    <circle cx="340" cy="340" r="6"/>
    <circle cx="400" cy="320" r="10"/>
    <circle cx="460" cy="360" r="7"/>
    <circle cx="520" cy="310" r="5"/>
  </g>
  <g transform="translate(620 200)">
    <polygon points="40,0 80,70 0,70" fill="#E5454A"/>
    <rect x="36" y="20" width="8" height="28" fill="#fff"/>
    <rect x="36" y="54" width="8" height="8" fill="#fff"/>
  </g>
  <text x="400" y="450" text-anchor="middle" font-family="Inter, sans-serif" font-size="13" fill="#7AB8E8" letter-spacing="3" opacity="0.85">PLACEHOLDER · 24/7 EMERGENCY PLUMBER</text>
</svg>
