<svg xmlns="http://www.w3.org/2000/svg" viewBox="0 0 800 500" role="img" aria-labelledby="t-gen">
  <title id="t-gen">Placeholder illustration: general plumbing</title>
  <defs>
    <linearGradient id="bg-gen" x1="0" y1="0" x2="0" y2="1">
      <stop offset="0" stop-color="#F5F5F2"/>
      <stop offset="1" stop-color="#E4ECF4"/>
    </linearGradient>
  </defs>
  <rect width="800" height="500" fill="url(#bg-gen)"/>
  <g stroke="#C8D4E0" stroke-width="40" fill="none" stroke-linecap="square">
    <path d="M120 460 V200 a40 40 0 0 1 40 -40 H320 a40 40 0 0 0 40 -40 V60"/>
    <path d="M680 460 V300 a40 40 0 0 0 -40 -40 H520"/>
  </g>
  <g stroke="#7AB8E8" stroke-width="8" fill="none" stroke-linecap="round">
    <path d="M120 460 V200 a40 40 0 0 1 40 -40 H320 a40 40 0 0 0 40 -40 V60"/>
    <path d="M680 460 V300 a40 40 0 0 0 -40 -40 H520"/>
  </g>
  <g fill="#0B6FB8">
    <rect x="100" y="190" width="40" height="20"/>
    <rect x="100" y="270" width="40" height="20"/>
    <rect x="100" y="350" width="40" height="20"/>
    <rect x="660" y="350" width="40" height="20"/>
    <rect x="660" y="420" width="40" height="20"/>
  </g>
  <g transform="translate(380 240) rotate(-25)">
    <rect x="0" y="0" width="220" height="26" rx="6" fill="#0A0A0A"/>
    <path d="M-30 -20 a40 40 0 0 1 60 0 V46 a40 40 0 0 1 -60 0 Z" fill="#0A0A0A"/>
    <circle cx="0" cy="13" r="14" fill="#F5F5F2"/>
    <path d="M250 -20 a40 40 0 0 1 0 60 V12 H230 a14 14 0 0 1 0 -28 H230 V-20 Z" fill="#0B6FB8"/>
  </g>
  <g fill="#7AB8E8">
    <circle cx="200" cy="200" r="6"/>
    <circle cx="220" cy="240" r="4"/>
    <circle cx="200" cy="280" r="5"/>
  </g>
  <text x="400" y="450" text-anchor="middle" font-family="Inter, sans-serif" font-size="13" fill="#5C5C5C" letter-spacing="3">PLACEHOLDER · GENERAL PLUMBING</text>
</svg>
