<svg xmlns="http://www.w3.org/2000/svg" viewBox="0 0 1200 600" role="img" aria-labelledby="t-hero" preserveAspectRatio="xMidYMid slice">
  <title id="t-hero">Placeholder illustration: plumber at work</title>
  <defs>
    <linearGradient id="hg" x1="0" y1="0" x2="0" y2="1">
      <stop offset="0" stop-color="#0F1A26"/>
      <stop offset="1" stop-color="#0A0A0A"/>
    </linearGradient>
    <linearGradient id="hp" x1="0" y1="0" x2="1" y2="0">
      <stop offset="0" stop-color="#0B6FB8"/>
      <stop offset="1" stop-color="#7AB8E8"/>
    </linearGradient>
  </defs>
  <rect width="1200" height="600" fill="url(#hg)"/>
  <g stroke="#1F3A55" stroke-width="6" fill="none" stroke-linecap="round" opacity="0.55">
    <path d="M0 120 H320 a40 40 0 0 1 40 40 V300"/>
    <path d="M1200 480 H880 a40 40 0 0 1 -40 -40 V260"/>
    <path d="M0 540 H600"/>
    <path d="M780 60 V180 a40 40 0 0 0 40 40 H1100"/>
  </g>
  <g stroke="url(#hp)" stroke-width="10" fill="none" stroke-linecap="round" opacity="0.9">
    <path d="M120 380 H460 a40 40 0 0 1 40 40 V520"/>
  </g>
  <g transform="translate(680 140)">
    <rect width="280" height="320" rx="10" fill="#FFFFFF" opacity="0.06"/>
    <rect x="40" y="40" width="200" height="56" rx="6" fill="#0B6FB8"/>
    <text x="140" y="76" text-anchor="middle" font-family="Archivo, Arial, sans-serif" font-weight="800" font-size="22" letter-spacing="3" fill="#fff">BOILER</text>
    <circle cx="100" cy="160" r="22" fill="none" stroke="#7AB8E8" stroke-width="3"/>
    <circle cx="180" cy="160" r="22" fill="#7AB8E8"/>
    <rect x="60" y="210" width="160" height="60" rx="6" fill="none" stroke="#7AB8E8" stroke-width="2"/>
    <path d="M140 226 c-6 8-12 20-12 30 a12 12 0 0 0 24 0 c0-10-6-22-12-30z" fill="#0B6FB8"/>
  </g>
  <g transform="translate(180 220)">
    <rect x="0" y="60" width="120" height="40" rx="4" fill="#7AB8E8" opacity="0.8"/>
    <circle cx="40" cy="40" r="32" fill="#7AB8E8" opacity="0.6"/>
    <rect x="44" y="100" width="32" height="200" rx="4" fill="#0B6FB8"/>
    <rect x="0" y="290" width="120" height="20" rx="4" fill="#0A0A0A" stroke="#7AB8E8" stroke-width="2"/>
  </g>
  <g transform="translate(420 360) rotate(-18)">
    <rect x="0" y="0" width="220" height="20" rx="6" fill="#7AB8E8"/>
    <rect x="0" y="-12" width="40" height="44" rx="6" fill="#7AB8E8"/>
    <rect x="180" y="-12" width="40" height="44" rx="6" fill="#0B6FB8"/>
  </g>
  <text x="60" y="560" font-family="Inter, sans-serif" font-size="13" fill="#7AB8E8" letter-spacing="3" opacity="0.7">PLACEHOLDER · O'SULLIVAN PLUMBING</text>
</svg>
