<svg xmlns="http://www.w3.org/2000/svg" viewBox="0 0 800 500" role="img" aria-labelledby="t-cert">
  <title id="t-cert">Placeholder illustration: landlord gas safety cert</title>
  <defs>
    <linearGradient id="bg-cert" x1="0" y1="0" x2="0" y2="1">
      <stop offset="0" stop-color="#F5F5F2"/>
      <stop offset="1" stop-color="#E4ECF4"/>
    </linearGradient>
  </defs>
  <rect width="800" height="500" fill="url(#bg-cert)"/>
  <g transform="translate(220 80)">
    <rect width="280" height="360" rx="6" fill="#FFFFFF" stroke="#0A0A0A" stroke-width="3"/>
    <rect width="280" height="50" fill="#0B6FB8"/>
    <text x="140" y="32" text-anchor="middle" font-family="Archivo, Arial, sans-serif" font-weight="800" font-size="14" letter-spacing="3" fill="#fff">RGI · GAS SAFETY CERT</text>
    <g fill="#0A0A0A">
      <rect x="30" y="80" width="180" height="8" rx="2"/>
      <rect x="30" y="100" width="220" height="8" rx="2" opacity="0.6"/>
      <rect x="30" y="120" width="160" height="8" rx="2" opacity="0.6"/>
      <rect x="30" y="160" width="100" height="8" rx="2"/>
      <rect x="30" y="180" width="220" height="8" rx="2" opacity="0.6"/>
      <rect x="30" y="200" width="200" height="8" rx="2" opacity="0.6"/>
      <rect x="30" y="240" width="120" height="8" rx="2"/>
      <rect x="30" y="260" width="220" height="8" rx="2" opacity="0.6"/>
      <rect x="30" y="280" width="180" height="8" rx="2" opacity="0.6"/>
    </g>
    <g transform="translate(180 300)">
      <circle r="40" fill="none" stroke="#0B6FB8" stroke-width="4"/>
      <path d="M-14 -2 L-4 10 L18 -14" stroke="#0B6FB8" stroke-width="6" fill="none" stroke-linecap="round" stroke-linejoin="round"/>
    </g>
  </g>
  <g transform="translate(550 220)">
    <path d="M0 0 c-12 16-22 36-22 52 a22 22 0 0 0 44 0 c0-16-10-36-22-52z" fill="#0B6FB8"/>
    <path d="M0 22 c-6 8-10 18-10 26 a10 10 0 0 0 20 0 c0-8-4-18-10-26z" fill="#7AB8E8"/>
  </g>
  <g transform="translate(170 250)" fill="#0B6FB8" opacity="0.4">
    <circle r="22"/>
  </g>
  <text x="400" y="470" text-anchor="middle" font-family="Inter, sans-serif" font-size="13" fill="#5C5C5C" letter-spacing="3">PLACEHOLDER · LANDLORD GAS SAFETY CERT</text>
</svg>
