<svg xmlns="http://www.w3.org/2000/svg" viewBox="0 0 800 500" role="img" aria-labelledby="t-flush">
  <title id="t-flush">Placeholder illustration: power flushing</title>
  <defs>
    <linearGradient id="bg-flush" x1="0" y1="0" x2="0" y2="1">
      <stop offset="0" stop-color="#F5F5F2"/>
      <stop offset="1" stop-color="#DCE8F4"/>
    </linearGradient>
    <linearGradient id="water" x1="0" y1="0" x2="1" y2="0">
      <stop offset="0" stop-color="#7AB8E8"/>
      <stop offset="1" stop-color="#0B6FB8"/>
    </linearGradient>
  </defs>
  <rect width="800" height="500" fill="url(#bg-flush)"/>
  <g transform="translate(80 200)">
    <rect width="640" height="100" rx="50" fill="#FFFFFF" stroke="#0A0A0A" stroke-width="3"/>
    <rect x="20" y="20" width="600" height="60" rx="30" fill="url(#water)" opacity="0.85"/>
    <g fill="#FFFFFF" opacity="0.7">
      <circle cx="80" cy="50" r="6"/>
      <circle cx="160" cy="60" r="4"/>
      <circle cx="240" cy="42" r="5"/>
      <circle cx="320" cy="58" r="6"/>
      <circle cx="400" cy="46" r="4"/>
      <circle cx="480" cy="62" r="5"/>
      <circle cx="560" cy="50" r="6"/>
    </g>
    <rect x="-30" y="-10" width="36" height="120" rx="6" fill="#0A0A0A"/>
    <rect x="634" y="-10" width="36" height="120" rx="6" fill="#0A0A0A"/>
    <g stroke="#0A0A0A" stroke-width="3" fill="none" opacity="0.4">
      <circle cx="120" cy="50" r="14"/>
      <circle cx="280" cy="50" r="10"/>
      <circle cx="440" cy="50" r="12"/>
    </g>
  </g>
  <g transform="translate(120 100)" stroke="#0B6FB8" stroke-width="6" fill="none" stroke-linecap="round" opacity="0.7">
    <path d="M0 60 Q40 0 80 60 T 160 60 T 240 60 T 320 60 T 400 60 T 480 60"/>
  </g>
  <g transform="translate(640 320)" fill="#0B6FB8">
    <path d="M0 0 L40 -20 L40 -8 L80 -8 L80 8 L40 8 L40 20 Z"/>
  </g>
  <text x="400" y="450" text-anchor="middle" font-family="Inter, sans-serif" font-size="13" fill="#5C5C5C" letter-spacing="3">PLACEHOLDER · POWER FLUSHING</text>
</svg>
