<svg xmlns="http://www.w3.org/2000/svg" viewBox="0 0 800 500" role="img" aria-labelledby="t-svc">
  <title id="t-svc">Placeholder illustration: services overview</title>
  <defs>
    <linearGradient id="bg-svc" x1="0" y1="0" x2="0" y2="1">
      <stop offset="0" stop-color="#F5F5F2"/>
      <stop offset="1" stop-color="#E4ECF4"/>
    </linearGradient>
  </defs>
  <rect width="800" height="500" fill="url(#bg-svc)"/>
  <g stroke="#C8D4E0" stroke-width="6" fill="none" stroke-linecap="round">
    <path d="M40 80 H760"/>
    <path d="M40 460 H760"/>
  </g>
  <g transform="translate(80 130)">
    <rect width="180" height="240" rx="10" fill="#FFFFFF" stroke="#0A0A0A" stroke-width="3"/>
    <rect x="14" y="20" width="152" height="36" rx="4" fill="#0A0A0A"/>
    <text x="90" y="44" text-anchor="middle" font-family="Archivo, Arial, sans-serif" font-weight="800" font-size="13" letter-spacing="3" fill="#fff">BOILER</text>
    <circle cx="58" cy="100" r="14" fill="#0B6FB8"/>
    <circle cx="118" cy="100" r="14" fill="none" stroke="#0A0A0A" stroke-width="2"/>
    <rect x="30" y="130" width="120" height="50" rx="4" fill="#F5F5F2" stroke="#0A0A0A" stroke-width="2"/>
    <path d="M90 144 c-6 8-10 16-10 22 a10 10 0 0 0 20 0 c0-6-4-14-10-22z" fill="#0B6FB8"/>
  </g>
  <g transform="translate(310 170)">
    <rect x="0" y="40" width="180" height="100" rx="10" fill="#FFFFFF" stroke="#0A0A0A" stroke-width="3"/>
    <ellipse cx="90" cy="40" rx="80" ry="10" fill="#7AB8E8" opacity="0.6"/>
    <rect x="84" y="0" width="12" height="36" fill="#0A0A0A"/>
    <rect x="60" y="-12" width="44" height="14" rx="3" fill="#0A0A0A"/>
    <g fill="#0B6FB8">
      <circle cx="40" cy="170" r="4"/>
      <circle cx="80" cy="180" r="3"/>
      <circle cx="120" cy="170" r="4"/>
    </g>
  </g>
  <g transform="translate(540 130)">
    <rect width="180" height="240" rx="10" fill="#FFFFFF" stroke="#0A0A0A" stroke-width="3"/>
    <g stroke="#0A0A0A" stroke-width="2">
      <line x1="20" y1="30" x2="20" y2="180"/>
      <line x1="40" y1="30" x2="40" y2="180"/>
      <line x1="60" y1="30" x2="60" y2="180"/>
      <line x1="80" y1="30" x2="80" y2="180"/>
      <line x1="100" y1="30" x2="100" y2="180"/>
      <line x1="120" y1="30" x2="120" y2="180"/>
      <line x1="140" y1="30" x2="140" y2="180"/>
      <line x1="160" y1="30" x2="160" y2="180"/>
    </g>
    <rect x="0" y="180" width="40" height="20" fill="#0A0A0A"/>
    <rect x="140" y="180" width="40" height="20" fill="#0A0A0A"/>
    <circle cx="-6" cy="60" r="10" fill="#0B6FB8"/>
  </g>
  <text x="400" y="450" text-anchor="middle" font-family="Inter, sans-serif" font-size="13" fill="#5C5C5C" letter-spacing="3">PLACEHOLDER · OUR SERVICES</text>
</svg>
